<?xml version="1.0" encoding="UTF-8" standalone="no"?>
<!-- Created with Inkscape (http://www.inkscape.org/) -->

<svg
   xmlns:dc="http://purl.org/dc/elements/1.1/"
   xmlns:cc="http://creativecommons.org/ns#"
   xmlns:rdf="http://www.w3.org/1999/02/22-rdf-syntax-ns#"
   xmlns:svg="http://www.w3.org/2000/svg"
   xmlns="http://www.w3.org/2000/svg"
   version="1.1"
   width="115"
   height="23"
   id="svg2">
  <defs
     id="defs4" />
  <metadata
     id="metadata7">
    <rdf:RDF>
      <cc:Work
         rdf:about="">
        <dc:format>image/svg+xml</dc:format>
        <dc:type
           rdf:resource="http://purl.org/dc/dcmitype/StillImage" />
        <dc:title></dc:title>
      </cc:Work>
    </rdf:RDF>
  </metadata>
  <path
     d="m 9.3241052,2.4517828 2.2856028,6.202325 6.761578,0 -5.428309,3.7656972 2.571304,6.86686 -6.1901758,-4.319476 -6.1901775,4.319476 2.571305,-6.86686 -5.42830988,-3.7656972 6.76157738,0 z"
     id="path4"
     style="fill:#d4af37;fill-opacity:1;stroke:none" />
  <path
     d="m 97.034156,2.4517828 2.2856,6.202325 6.761594,0 -5.4283,3.7656972 2.5713,6.86686 -6.190194,-4.319476 -6.190183,4.319476 2.571315,-6.86686 -5.428317,-3.7656972 6.761573,0 z"
     id="path3119"
     style="fill:#cdcdcd;fill-opacity:1;stroke:none" />
  <path
     d="m 31.323041,2.4517828 2.285605,6.202325 6.761577,0 -5.428309,3.7656972 2.571305,6.86686 -6.190178,-4.319476 -6.190177,4.319476 2.571305,-6.86686 -5.428309,-3.7656972 6.761578,0 z"
     id="path3140"
     style="fill:#d4af37;fill-opacity:1;stroke:none" />
  <path
     d="m 53.226745,2.4517828 2.285604,6.202325 6.761579,0 -5.42831,3.7656972 2.571304,6.86686 -6.190177,-4.319476 -6.190177,4.319476 2.571305,-6.86686 -5.42831,-3.7656972 6.761579,0 z"
     id="path3161"
     style="fill:#cdcdcd;fill-opacity:1;stroke:none" />
  <path
     d="m 75.130448,2.4517828 2.285605,6.202325 6.761579,0 -5.42831,3.7656972 2.571304,6.86686 -6.190178,-4.319476 -6.190176,4.319476 2.571305,-6.86686 -5.42831,-3.7656972 6.761579,0 z"
     id="path3182"
     style="fill:#cdcdcd;fill-opacity:1;stroke:none" />
</svg>
